<svg width="80" height="80" viewBox="0 0 80 80" fill="none" xmlns="http://www.w3.org/2000/svg">
<path d="M24.2036 4.88892H29.9073L40.5 24.4445L51.0926 4.88892H56.7963L40.5 34.2222L24.2036 4.88892ZM31.537 4.88892H36.4259L40.5 12.3526L44.574 4.88892H49.4629L40.5 21.3156L31.537 4.88892Z" fill="#F8FAFC"/>
<path d="M60.9445 76.7409C51.9441 76.7409 44.6482 69.4451 44.6482 60.4446C44.6482 51.4442 51.9441 44.1483 60.9445 44.1483C69.945 44.1483 77.2409 51.4442 77.2409 60.4446C77.2409 69.4451 69.945 76.7409 60.9445 76.7409ZM67.4631 53.9261H65.2631V60.4446H67.4631V53.9261ZM56.6195 56.7128L66.4934 69.4695L68.2111 68.1511L57.1687 53.9261H54.426V66.9582H56.6195V56.7128Z" fill="#F8FAFC"/>
<path d="M18.4098 44.1057C23.1683 41.0746 29.7471 42.4892 33.0781 47.2575C33.8687 48.364 34.4304 49.6171 34.7304 50.9435C35.0304 52.2699 35.0626 53.6429 34.8251 54.9819C34.594 56.2605 34.1061 57.479 33.391 58.5638C34.434 60.5536 34.7843 62.8335 34.3851 65.0449C34.1498 66.3575 33.6432 67.6065 32.8976 68.7121C32.1521 69.8178 31.1839 70.7556 30.0551 71.4656L21.7 76.7912C16.9415 79.8223 10.3626 78.4095 7.03003 73.6412C6.23981 72.5342 5.67853 71.2806 5.37911 69.9539C5.07969 68.6272 5.04814 67.2541 5.28632 65.9151C5.51741 64.6365 6.00526 63.418 6.7204 62.3332C5.67722 60.3436 5.32686 58.0631 5.72469 55.8521C5.96011 54.5394 6.46697 53.2902 7.21284 52.1846C7.95872 51.079 8.92718 50.1412 10.0563 49.4314L18.4098 44.1057ZM13.617 73.8889C14.8914 74.3615 16.2782 74.4299 17.5933 74.0893C18.1947 73.928 18.7667 73.677 19.2914 73.3429L27.6482 68.0189C28.3269 67.5916 28.909 67.0274 29.3574 66.3623C29.8058 65.6973 30.1106 64.9461 30.2523 64.1567C30.395 63.3516 30.3755 62.526 30.195 61.7285C30.0145 60.931 29.6767 60.1775 29.2012 59.5123C28.4273 58.3959 27.3294 57.5441 26.0557 57.072C24.7821 56.5999 23.3942 56.5301 22.0797 56.8723C21.4784 57.0336 20.9064 57.2846 20.3816 57.6186L17.1924 59.6492C17.0347 59.7504 16.862 59.8263 16.6807 59.874C16.424 59.9405 16.1565 59.9552 15.894 59.9173C15.6315 59.8795 15.3792 59.7897 15.1517 59.6534C14.9242 59.5171 14.7261 59.3368 14.569 59.1232C14.4118 58.9095 14.2987 58.6668 14.2363 58.409C14.1804 58.1683 14.1748 57.9186 14.22 57.6757C14.2629 57.4384 14.3547 57.2127 14.4893 57.0127C14.6239 56.8127 14.7986 56.6428 15.0022 56.5137L23.3606 51.1881C23.5184 51.0869 23.691 51.011 23.8723 50.9632C24.2686 50.8611 24.6867 50.8827 25.0704 51.0251C25.454 51.1676 25.7849 51.4241 26.0185 51.7601C26.2744 52.1219 26.3933 52.5619 26.3559 53.0019L26.3265 53.3115L26.6378 53.406C27.8122 53.7606 28.9172 54.3134 29.9052 55.0406L30.3338 55.3535L30.4902 54.8727C30.575 54.6174 30.6418 54.3577 30.6907 54.0937C30.8336 53.2887 30.8144 52.4632 30.6342 51.6657C30.454 50.8682 30.1164 50.1147 29.6412 49.4493C28.8674 48.3324 27.7693 47.4801 26.4953 47.0076C25.2213 46.5351 23.833 46.4654 22.5181 46.8077C21.9169 46.9674 21.3441 47.2192 20.82 47.554L12.4616 52.878C11.7823 53.3051 11.1995 53.8691 10.7506 54.5342C10.3016 55.1992 9.9963 55.9506 9.85419 56.7403C9.7115 57.5454 9.73097 58.3709 9.91146 59.1685C10.092 59.966 10.4298 60.7195 10.9053 61.3847C11.6793 62.5013 12.7775 63.3533 14.0515 63.8255C15.3254 64.2977 16.7137 64.3672 18.0284 64.0247C18.6298 63.8634 19.2018 63.6124 19.7265 63.28L22.9141 61.2462C23.0749 61.1452 23.246 61.0707 23.4274 61.0229C23.6841 60.9571 23.9514 60.9429 24.2137 60.9811C24.4759 61.0193 24.728 61.1091 24.9554 61.2454C25.1827 61.3816 25.3807 61.5616 25.5381 61.7749C25.6954 61.9882 25.8088 62.2305 25.8719 62.488C25.9273 62.7275 25.9322 62.9769 25.8898 63.2197C25.8464 63.4572 25.7542 63.6831 25.619 63.8831C25.4838 64.0831 25.3085 64.2529 25.1043 64.3816L16.7492 69.7089C16.5913 69.8095 16.4186 69.8849 16.2375 69.9321C15.8413 70.0345 15.4233 70.0131 15.0397 69.8709C14.656 69.7288 14.3251 69.4726 14.0912 69.1369C13.8358 68.7757 13.7163 68.3358 13.7539 67.8951L13.7816 67.5854L13.472 67.4909C12.2976 67.1364 11.1925 66.5836 10.2046 65.8564L9.77596 65.5435L9.61952 66.0243C9.53673 66.2795 9.46979 66.5397 9.41907 66.8032C9.27615 67.6083 9.29536 68.4337 9.47557 69.2313C9.65579 70.0288 9.99338 70.7823 10.4686 71.4477C11.2422 72.5643 12.3401 73.4164 13.6138 73.8889" fill="#F8FAFC"/>
</svg>
